<?xml version="1.0" encoding="UTF-8"?>
<svg id="Capa_2" data-name="Capa 2" xmlns="http://www.w3.org/2000/svg" viewBox="0 0 198.53 198.53">
  <defs>
    <style>
      .cls-1 {
        fill: none;
        stroke: #9d9d9c;
        stroke-miterlimit: 10;
        stroke-width: .1px;
      }

      .cls-2 {
        fill: #69112a;
        opacity: .5;
      }
    </style>
  </defs>
  <g id="Capa_1-2" data-name="Capa 1">
    <g>
      <rect class="cls-1" x=".05" y=".05" width="198.43" height="198.43"/>
      <line class="cls-1" x1=".05" y1="2.88" x2="198.48" y2="2.88"/>
      <line class="cls-1" x1=".05" y1="5.72" x2="198.48" y2="5.72"/>
      <line class="cls-1" x1=".05" y1="8.55" x2="198.48" y2="8.55"/>
      <line class="cls-1" x1=".05" y1="11.39" x2="198.48" y2="11.39"/>
      <line class="cls-1" x1=".05" y1="14.22" x2="198.48" y2="14.22"/>
      <line class="cls-1" x1=".05" y1="17.06" x2="198.48" y2="17.06"/>
      <line class="cls-1" x1=".05" y1="19.89" x2="198.48" y2="19.89"/>
      <line class="cls-1" x1=".05" y1="22.73" x2="198.48" y2="22.73"/>
      <line class="cls-1" x1=".05" y1="25.56" x2="198.48" y2="25.56"/>
      <line class="cls-1" x1=".05" y1="28.4" x2="198.48" y2="28.4"/>
      <line class="cls-1" x1=".05" y1="31.23" x2="198.48" y2="31.23"/>
      <line class="cls-1" x1=".05" y1="34.07" x2="198.48" y2="34.07"/>
      <line class="cls-1" x1=".05" y1="36.9" x2="198.48" y2="36.9"/>
      <line class="cls-1" x1=".05" y1="39.74" x2="198.48" y2="39.74"/>
      <line class="cls-1" x1=".05" y1="42.57" x2="198.48" y2="42.57"/>
      <line class="cls-1" x1=".05" y1="45.4" x2="198.48" y2="45.4"/>
      <line class="cls-1" x1=".05" y1="48.24" x2="198.48" y2="48.24"/>
      <line class="cls-1" x1=".05" y1="51.07" x2="198.48" y2="51.07"/>
      <line class="cls-1" x1=".05" y1="53.91" x2="198.48" y2="53.91"/>
      <line class="cls-1" x1=".05" y1="56.74" x2="198.48" y2="56.74"/>
      <line class="cls-1" x1=".05" y1="59.58" x2="198.48" y2="59.58"/>
      <line class="cls-1" x1=".05" y1="62.41" x2="198.48" y2="62.41"/>
      <line class="cls-1" x1=".05" y1="65.25" x2="198.48" y2="65.25"/>
      <line class="cls-1" x1=".05" y1="68.08" x2="198.48" y2="68.08"/>
      <line class="cls-1" x1=".05" y1="70.92" x2="198.48" y2="70.92"/>
      <line class="cls-1" x1=".05" y1="73.75" x2="198.48" y2="73.75"/>
      <line class="cls-1" x1=".05" y1="76.59" x2="198.48" y2="76.59"/>
      <line class="cls-1" x1=".05" y1="79.42" x2="198.48" y2="79.42"/>
      <line class="cls-1" x1=".05" y1="82.25" x2="198.48" y2="82.25"/>
      <line class="cls-1" x1=".05" y1="85.09" x2="198.48" y2="85.09"/>
      <line class="cls-1" x1=".05" y1="87.92" x2="198.48" y2="87.92"/>
      <line class="cls-1" x1=".05" y1="90.76" x2="198.48" y2="90.76"/>
      <line class="cls-1" x1=".05" y1="93.59" x2="198.48" y2="93.59"/>
      <line class="cls-1" x1=".05" y1="96.43" x2="198.48" y2="96.43"/>
      <line class="cls-1" x1=".05" y1="99.26" x2="198.48" y2="99.26"/>
      <line class="cls-1" x1=".05" y1="102.1" x2="198.48" y2="102.1"/>
      <line class="cls-1" x1=".05" y1="104.93" x2="198.48" y2="104.93"/>
      <line class="cls-1" x1=".05" y1="107.77" x2="198.48" y2="107.77"/>
      <line class="cls-1" x1=".05" y1="110.6" x2="198.48" y2="110.6"/>
      <line class="cls-1" x1=".05" y1="113.44" x2="198.48" y2="113.44"/>
      <line class="cls-1" x1=".05" y1="116.27" x2="198.48" y2="116.27"/>
      <line class="cls-1" x1=".05" y1="119.11" x2="198.48" y2="119.11"/>
      <line class="cls-1" x1=".05" y1="121.94" x2="198.48" y2="121.94"/>
      <line class="cls-1" x1=".05" y1="124.77" x2="198.48" y2="124.77"/>
      <line class="cls-1" x1=".05" y1="127.61" x2="198.48" y2="127.61"/>
      <line class="cls-1" x1=".05" y1="130.44" x2="198.48" y2="130.44"/>
      <line class="cls-1" x1=".05" y1="133.28" x2="198.48" y2="133.28"/>
      <line class="cls-1" x1=".05" y1="136.11" x2="198.48" y2="136.11"/>
      <line class="cls-1" x1=".05" y1="138.95" x2="198.48" y2="138.95"/>
      <line class="cls-1" x1=".05" y1="141.78" x2="198.48" y2="141.78"/>
      <line class="cls-1" x1=".05" y1="144.62" x2="198.48" y2="144.62"/>
      <line class="cls-1" x1=".05" y1="147.45" x2="198.48" y2="147.45"/>
      <line class="cls-1" x1=".05" y1="150.29" x2="198.48" y2="150.29"/>
      <line class="cls-1" x1=".05" y1="153.12" x2="198.48" y2="153.12"/>
      <line class="cls-1" x1=".05" y1="155.96" x2="198.48" y2="155.96"/>
      <line class="cls-1" x1=".05" y1="158.79" x2="198.48" y2="158.79"/>
      <line class="cls-1" x1=".05" y1="161.62" x2="198.48" y2="161.62"/>
      <line class="cls-1" x1=".05" y1="164.46" x2="198.48" y2="164.46"/>
      <line class="cls-1" x1=".05" y1="167.29" x2="198.48" y2="167.29"/>
      <line class="cls-1" x1=".05" y1="170.13" x2="198.48" y2="170.13"/>
      <line class="cls-1" x1=".05" y1="172.96" x2="198.48" y2="172.96"/>
      <line class="cls-1" x1=".05" y1="175.8" x2="198.48" y2="175.8"/>
      <line class="cls-1" x1=".05" y1="178.63" x2="198.48" y2="178.63"/>
      <line class="cls-1" x1=".05" y1="181.47" x2="198.48" y2="181.47"/>
      <line class="cls-1" x1=".05" y1="184.3" x2="198.48" y2="184.3"/>
      <line class="cls-1" x1=".05" y1="187.14" x2="198.48" y2="187.14"/>
      <line class="cls-1" x1=".05" y1="189.97" x2="198.48" y2="189.97"/>
      <line class="cls-1" x1=".05" y1="192.81" x2="198.48" y2="192.81"/>
      <line class="cls-1" x1=".05" y1="195.64" x2="198.48" y2="195.64"/>
      <line class="cls-1" x1="195.64" y1="198.48" x2="195.64" y2=".05"/>
      <line class="cls-1" x1="192.81" y1="198.48" x2="192.81" y2=".05"/>
      <line class="cls-1" x1="189.97" y1="198.48" x2="189.97" y2=".05"/>
      <line class="cls-1" x1="187.14" y1="198.48" x2="187.14" y2=".05"/>
      <line class="cls-1" x1="184.3" y1="198.48" x2="184.3" y2=".05"/>
      <line class="cls-1" x1="181.47" y1="198.48" x2="181.47" y2=".05"/>
      <line class="cls-1" x1="178.63" y1="198.48" x2="178.63" y2=".05"/>
      <line class="cls-1" x1="175.8" y1="198.48" x2="175.8" y2=".05"/>
      <line class="cls-1" x1="172.96" y1="198.48" x2="172.96" y2=".05"/>
      <line class="cls-1" x1="170.13" y1="198.48" x2="170.13" y2=".05"/>
      <line class="cls-1" x1="167.29" y1="198.48" x2="167.29" y2=".05"/>
      <line class="cls-1" x1="164.46" y1="198.48" x2="164.46" y2=".05"/>
      <line class="cls-1" x1="161.62" y1="198.48" x2="161.62" y2=".05"/>
      <line class="cls-1" x1="158.79" y1="198.48" x2="158.79" y2=".05"/>
      <line class="cls-1" x1="155.96" y1="198.48" x2="155.96" y2=".05"/>
      <line class="cls-1" x1="153.12" y1="198.48" x2="153.12" y2=".05"/>
      <line class="cls-1" x1="150.29" y1="198.48" x2="150.29" y2=".05"/>
      <line class="cls-1" x1="147.45" y1="198.48" x2="147.45" y2=".05"/>
      <line class="cls-1" x1="144.62" y1="198.48" x2="144.62" y2=".05"/>
      <line class="cls-1" x1="141.78" y1="198.48" x2="141.78" y2=".05"/>
      <line class="cls-1" x1="138.95" y1="198.48" x2="138.95" y2=".05"/>
      <line class="cls-1" x1="136.11" y1="198.48" x2="136.11" y2=".05"/>
      <line class="cls-1" x1="133.28" y1="198.48" x2="133.28" y2=".05"/>
      <line class="cls-1" x1="130.44" y1="198.48" x2="130.44" y2=".05"/>
      <line class="cls-1" x1="127.61" y1="198.48" x2="127.61" y2=".05"/>
      <line class="cls-1" x1="124.77" y1="198.48" x2="124.77" y2=".05"/>
      <line class="cls-1" x1="121.94" y1="198.48" x2="121.94" y2=".05"/>
      <line class="cls-1" x1="119.11" y1="198.48" x2="119.11" y2=".05"/>
      <line class="cls-1" x1="116.27" y1="198.48" x2="116.27" y2=".05"/>
      <line class="cls-1" x1="113.44" y1="198.48" x2="113.44" y2=".05"/>
      <line class="cls-1" x1="110.6" y1="198.48" x2="110.6" y2=".05"/>
      <line class="cls-1" x1="107.77" y1="198.48" x2="107.77" y2=".05"/>
      <line class="cls-1" x1="104.93" y1="198.48" x2="104.93" y2=".05"/>
      <line class="cls-1" x1="102.1" y1="198.48" x2="102.1" y2=".05"/>
      <line class="cls-1" x1="99.26" y1="198.48" x2="99.26" y2=".05"/>
      <line class="cls-1" x1="96.43" y1="198.48" x2="96.43" y2=".05"/>
      <line class="cls-1" x1="93.59" y1="198.48" x2="93.59" y2=".05"/>
      <line class="cls-1" x1="90.76" y1="198.48" x2="90.76" y2=".05"/>
      <line class="cls-1" x1="87.92" y1="198.48" x2="87.92" y2=".05"/>
      <line class="cls-1" x1="85.09" y1="198.48" x2="85.09" y2=".05"/>
      <line class="cls-1" x1="82.25" y1="198.48" x2="82.25" y2=".05"/>
      <line class="cls-1" x1="79.42" y1="198.48" x2="79.42" y2=".05"/>
      <line class="cls-1" x1="76.59" y1="198.48" x2="76.59" y2=".05"/>
      <line class="cls-1" x1="73.75" y1="198.48" x2="73.75" y2=".05"/>
      <line class="cls-1" x1="70.92" y1="198.48" x2="70.92" y2=".05"/>
      <line class="cls-1" x1="68.08" y1="198.48" x2="68.08" y2=".05"/>
      <line class="cls-1" x1="65.25" y1="198.48" x2="65.25" y2=".05"/>
      <line class="cls-1" x1="62.41" y1="198.48" x2="62.41" y2=".05"/>
      <line class="cls-1" x1="59.58" y1="198.48" x2="59.58" y2=".05"/>
      <line class="cls-1" x1="56.74" y1="198.48" x2="56.74" y2=".05"/>
      <line class="cls-1" x1="53.91" y1="198.48" x2="53.91" y2=".05"/>
      <line class="cls-1" x1="51.07" y1="198.48" x2="51.07" y2=".05"/>
      <line class="cls-1" x1="48.24" y1="198.48" x2="48.24" y2=".05"/>
      <line class="cls-1" x1="45.4" y1="198.48" x2="45.4" y2=".05"/>
      <line class="cls-1" x1="42.57" y1="198.48" x2="42.57" y2=".05"/>
      <line class="cls-1" x1="39.74" y1="198.48" x2="39.74" y2=".05"/>
      <line class="cls-1" x1="36.9" y1="198.48" x2="36.9" y2=".05"/>
      <line class="cls-1" x1="34.07" y1="198.48" x2="34.07" y2=".05"/>
      <line class="cls-1" x1="31.23" y1="198.48" x2="31.23" y2=".05"/>
      <line class="cls-1" x1="28.4" y1="198.48" x2="28.4" y2=".05"/>
      <line class="cls-1" x1="25.56" y1="198.48" x2="25.56" y2=".05"/>
      <line class="cls-1" x1="22.73" y1="198.48" x2="22.73" y2=".05"/>
      <line class="cls-1" x1="19.89" y1="198.48" x2="19.89" y2=".05"/>
      <line class="cls-1" x1="17.06" y1="198.48" x2="17.06" y2=".05"/>
      <line class="cls-1" x1="14.22" y1="198.48" x2="14.22" y2=".05"/>
      <line class="cls-1" x1="11.39" y1="198.48" x2="11.39" y2=".05"/>
      <line class="cls-1" x1="8.55" y1="198.48" x2="8.55" y2=".05"/>
      <line class="cls-1" x1="5.72" y1="198.48" x2="5.72" y2=".05"/>
      <line class="cls-1" x1="2.88" y1="198.48" x2="2.88" y2=".05"/>
    </g>
    <path class="cls-2" d="M97.1,93.63c8.41-23.41,26.87-42.74,50.8-51.58l-38.29-27.82c-16.82,23.16-26.34,57.21-23.8,82.83-19.67-15.23-32.35-38.77-33.36-64.25L14.15,60.62c16.83,23.16,46.27,42.73,71.42,48.23-20.57,14-46.87,18.79-71.41,11.87l14.63,45.02c27.22-8.85,54.93-30.8,67.93-53.02,6.96,23.88,3.38,50.38-10.78,71.58h47.33c0-28.63-12.32-61.76-29.43-81,24.87.76,48.96,12.35,64.76,32.37l14.63-45.02c-27.23-8.84-62.55-7.37-86.13,2.96Z"/>
  </g>
</svg>