<?xml version="1.0" encoding="UTF-8"?>
<svg id="Capa_2" data-name="Capa 2" xmlns="http://www.w3.org/2000/svg" viewBox="0 0 198.43 198.43">
  <defs>
    <style>
      .cls-1 {
        fill: #f28e0e;
      }

      .cls-2 {
        fill: #e61466;
      }

      .cls-3 {
        stroke: #f28e0e;
        stroke-width: .5px;
      }

      .cls-3, .cls-4 {
        fill: none;
        stroke-miterlimit: 10;
      }

      .cls-4 {
        stroke: #9d9d9c;
        stroke-width: .1px;
      }

      .cls-5 {
        fill: #69112a;
        opacity: .25;
      }
    </style>
  </defs>
  <g id="Capa_1-2" data-name="Capa 1">
    <line class="cls-4" y1="194.46" x2="198.43" y2="194.46"/>
    <line class="cls-4" y1="190.49" x2="198.43" y2="190.49"/>
    <line class="cls-4" y1="186.52" x2="198.43" y2="186.52"/>
    <line class="cls-4" y1="182.55" x2="198.43" y2="182.55"/>
    <line class="cls-4" y1="178.58" x2="198.43" y2="178.58"/>
    <line class="cls-4" y1="174.61" x2="198.43" y2="174.61"/>
    <line class="cls-4" y1="170.65" x2="198.43" y2="170.65"/>
    <line class="cls-4" y1="166.68" x2="198.43" y2="166.68"/>
    <line class="cls-4" y1="162.71" x2="198.43" y2="162.71"/>
    <line class="cls-4" y1="158.74" x2="198.43" y2="158.74"/>
    <line class="cls-4" y1="154.77" x2="198.43" y2="154.77"/>
    <line class="cls-4" y1="150.8" x2="198.43" y2="150.8"/>
    <line class="cls-4" y1="146.83" x2="198.43" y2="146.83"/>
    <line class="cls-4" y1="142.87" x2="198.43" y2="142.87"/>
    <line class="cls-4" y1="138.9" x2="198.43" y2="138.9"/>
    <line class="cls-4" y1="134.93" x2="198.43" y2="134.93"/>
    <line class="cls-4" y1="130.96" x2="198.43" y2="130.96"/>
    <line class="cls-4" y1="126.99" x2="198.43" y2="126.99"/>
    <line class="cls-4" y1="123.02" x2="198.43" y2="123.02"/>
    <line class="cls-4" y1="119.06" x2="198.43" y2="119.06"/>
    <line class="cls-4" y1="115.09" x2="198.43" y2="115.09"/>
    <line class="cls-4" y1="111.12" x2="198.43" y2="111.12"/>
    <line class="cls-4" y1="107.15" x2="198.43" y2="107.15"/>
    <line class="cls-4" y1="103.18" x2="198.43" y2="103.18"/>
    <line class="cls-4" y1="99.21" x2="198.43" y2="99.21"/>
    <line class="cls-4" y1="95.24" x2="198.43" y2="95.24"/>
    <line class="cls-4" y1="91.28" x2="198.43" y2="91.28"/>
    <line class="cls-4" y1="87.31" x2="198.43" y2="87.31"/>
    <line class="cls-4" y1="83.34" x2="198.43" y2="83.34"/>
    <line class="cls-4" y1="79.37" x2="198.43" y2="79.37"/>
    <line class="cls-4" y1="75.4" x2="198.43" y2="75.4"/>
    <line class="cls-4" y1="71.43" x2="198.43" y2="71.43"/>
    <line class="cls-4" y1="67.46" x2="198.43" y2="67.46"/>
    <line class="cls-4" y1="63.5" x2="198.43" y2="63.5"/>
    <line class="cls-4" y1="59.53" x2="198.43" y2="59.53"/>
    <line class="cls-4" y1="55.56" x2="198.43" y2="55.56"/>
    <line class="cls-4" y1="51.59" x2="198.43" y2="51.59"/>
    <line class="cls-4" y1="47.62" x2="198.43" y2="47.62"/>
    <line class="cls-4" y1="43.65" x2="198.43" y2="43.65"/>
    <line class="cls-4" y1="39.69" x2="198.43" y2="39.69"/>
    <line class="cls-4" y1="35.72" x2="198.43" y2="35.72"/>
    <line class="cls-4" y1="31.75" x2="198.43" y2="31.75"/>
    <line class="cls-4" y1="27.78" x2="198.43" y2="27.78"/>
    <line class="cls-4" y1="23.81" x2="198.43" y2="23.81"/>
    <line class="cls-4" y1="19.84" x2="198.43" y2="19.84"/>
    <line class="cls-4" y1="15.87" x2="198.43" y2="15.87"/>
    <line class="cls-4" y1="11.91" x2="198.43" y2="11.91"/>
    <line class="cls-4" y1="7.94" x2="198.43" y2="7.94"/>
    <line class="cls-4" y1="3.97" x2="198.43" y2="3.97"/>
    <line class="cls-4" x1="194.46" x2="194.46" y2="198.43"/>
    <line class="cls-4" x1="190.49" x2="190.49" y2="198.43"/>
    <line class="cls-4" x1="186.52" x2="186.52" y2="198.43"/>
    <line class="cls-4" x1="182.55" x2="182.55" y2="198.43"/>
    <line class="cls-4" x1="178.58" x2="178.58" y2="198.43"/>
    <line class="cls-4" x1="174.61" x2="174.61" y2="198.43"/>
    <line class="cls-4" x1="170.65" x2="170.65" y2="198.43"/>
    <line class="cls-4" x1="166.68" x2="166.68" y2="198.43"/>
    <line class="cls-4" x1="162.71" x2="162.71" y2="198.43"/>
    <line class="cls-4" x1="158.74" x2="158.74" y2="198.43"/>
    <line class="cls-4" x1="154.77" x2="154.77" y2="198.43"/>
    <line class="cls-4" x1="150.8" x2="150.8" y2="198.43"/>
    <line class="cls-4" x1="146.83" x2="146.83" y2="198.43"/>
    <line class="cls-4" x1="142.87" x2="142.87" y2="198.43"/>
    <line class="cls-4" x1="138.9" x2="138.9" y2="198.43"/>
    <line class="cls-4" x1="134.93" x2="134.93" y2="198.43"/>
    <line class="cls-4" x1="130.96" x2="130.96" y2="198.43"/>
    <line class="cls-4" x1="126.99" x2="126.99" y2="198.43"/>
    <line class="cls-4" x1="123.02" x2="123.02" y2="198.43"/>
    <line class="cls-4" x1="119.06" x2="119.06" y2="198.43"/>
    <line class="cls-4" x1="115.09" x2="115.09" y2="198.43"/>
    <line class="cls-4" x1="111.12" x2="111.12" y2="198.43"/>
    <line class="cls-4" x1="107.15" x2="107.15" y2="198.43"/>
    <line class="cls-4" x1="103.18" x2="103.18" y2="198.43"/>
    <line class="cls-4" x1="99.21" x2="99.21" y2="198.43"/>
    <line class="cls-4" x1="95.24" x2="95.24" y2="198.43"/>
    <line class="cls-4" x1="91.28" x2="91.28" y2="198.43"/>
    <line class="cls-4" x1="87.31" x2="87.31" y2="198.43"/>
    <line class="cls-4" x1="83.34" x2="83.34" y2="198.43"/>
    <line class="cls-4" x1="79.37" x2="79.37" y2="198.43"/>
    <line class="cls-4" x1="75.4" x2="75.4" y2="198.43"/>
    <line class="cls-4" x1="71.43" x2="71.43" y2="198.43"/>
    <line class="cls-4" x1="67.46" x2="67.46" y2="198.43"/>
    <line class="cls-4" x1="63.5" x2="63.5" y2="198.43"/>
    <line class="cls-4" x1="59.53" x2="59.53" y2="198.43"/>
    <line class="cls-4" x1="55.56" x2="55.56" y2="198.43"/>
    <line class="cls-4" x1="51.59" x2="51.59" y2="198.43"/>
    <line class="cls-4" x1="47.62" x2="47.62" y2="198.43"/>
    <line class="cls-4" x1="43.65" x2="43.65" y2="198.43"/>
    <line class="cls-4" x1="39.69" x2="39.69" y2="198.43"/>
    <line class="cls-4" x1="35.72" x2="35.72" y2="198.43"/>
    <line class="cls-4" x1="31.75" x2="31.75" y2="198.43"/>
    <line class="cls-4" x1="27.78" x2="27.78" y2="198.43"/>
    <line class="cls-4" x1="23.81" x2="23.81" y2="198.43"/>
    <line class="cls-4" x1="19.84" x2="19.84" y2="198.43"/>
    <line class="cls-4" x1="15.87" x2="15.87" y2="198.43"/>
    <line class="cls-4" x1="11.91" x2="11.91" y2="198.43"/>
    <line class="cls-4" x1="7.94" x2="7.94" y2="198.43"/>
    <line class="cls-4" x1="3.97" x2="3.97" y2="198.43"/>
    <path class="cls-5" d="M126.98,178.58c-55.56,0-77.52-158.74-11.91-158.74,21.69,0,31.69,15.87,39.63,39.69l23.86-11.91c-11.92-19.84-27.78-35.72-63.5-35.72-99.21,0-91.33,162.71-.05,174.61,31.73,4.14,55.63-15.87,67.53-39.69h-19.91c-3.97,15.87-11.85,31.75-35.66,31.75Z"/>
    <circle class="cls-1" cx="150.8" cy="11.91" r=".79"/>
    <circle class="cls-1" cx="134.93" cy="19.84" r=".79"/>
    <circle class="cls-1" cx="15.87" cy="11.91" r=".79"/>
    <circle class="cls-1" cx="47.62" cy="19.84" r=".79"/>
    <circle class="cls-1" cx="166.68" cy="27.78" r=".79"/>
    <circle class="cls-1" cx="146.83" cy="35.72" r=".79"/>
    <line class="cls-3" x1="166.68" y1="27.78" x2="178.57" y2="47.62"/>
    <line class="cls-3" x1="146.83" y1="35.72" x2="154.7" y2="59.53"/>
    <line class="cls-3" x1="15.87" y1="11.91" x2="150.8" y2="11.91"/>
    <circle class="cls-1" cx="23.81" cy="174.61" r=".79"/>
    <line class="cls-3" x1="23.81" y1="174.61" x2="146.83" y2="190.49"/>
    <line class="cls-3" x1="47.62" y1="19.84" x2="134.93" y2="19.84"/>
    <rect class="cls-2" x="177.77" y="46.83" width="1.59" height="1.59"/>
    <rect class="cls-2" x="153.91" y="58.73" width="1.59" height="1.59"/>
    <rect class="cls-2" x="114.28" y="11.11" width="1.59" height="1.59"/>
    <rect class="cls-2" x="114.28" y="19.05" width="1.59" height="1.59"/>
    <rect class="cls-2" x="114.22" y="185.73" width="1.59" height="1.59"/>
    <circle class="cls-1" cx="146.83" cy="190.49" r=".79"/>
    <circle class="cls-1" cx="158.74" cy="162.71" r=".79"/>
    <circle class="cls-1" cx="170.65" cy="170.65" r=".79"/>
    <line class="cls-3" x1="162.64" y1="146.83" x2="158.74" y2="162.71"/>
    <line class="cls-3" x1="182.48" y1="146.83" x2="170.65" y2="170.65"/>
    <rect class="cls-2" x="161.91" y="146.04" width="1.59" height="1.59"/>
    <rect class="cls-2" x="181.76" y="146.04" width="1.59" height="1.59"/>
  </g>
</svg>