<?xml version="1.0" encoding="UTF-8"?>
<svg id="Capa_1" xmlns="http://www.w3.org/2000/svg" version="1.1" viewBox="0 0 255.1 255.1">
  <!-- Generator: Adobe Illustrator 30.1.0, SVG Export Plug-In . SVG Version: 2.1.1 Build 136)  -->
  <defs>
    <style>
      .st0 {
        fill: #fff;
      }
    </style>
  </defs>
  <path class="st0" d="M69.3,158.6h0c0,1.8-.3,3.8.6,5.5.9,1.7,2.7,2.7,4.6,2.7h80.6s0,0,0,0c1.8,0,3.5-1,4.4-2.5,1-1.8.5-3.9.7-5.9-15.1-7.4-30.1-15-45.2-22.4-15.2,7.5-30.4,15-45.6,22.6Z"/>
  <path class="st0" d="M155,88.3h-80.6c-2,0-3.8,1-4.7,2.8h0s0,0,0,0h0c-.8,1.7-.4,3.6-.5,5.4,15.3,7.5,30.4,15.1,45.6,22.6,15-7.5,30.1-14.9,45.1-22.4,0-1.4,0-2.7,0-4.1-.4-2.5-2.5-4.4-5-4.4Z"/>
  <path class="st0" d="M209.4,0H45.8C20.5,0,0,20.5,0,45.8v163.6c0,25.3,20.5,45.8,45.8,45.8h163.6c25.3,0,45.8-20.5,45.8-45.8V45.8c0-25.3-20.5-45.8-45.8-45.8ZM199.2,161c.9.3,1.5,1.1,1.6,2v13.8c0,.6-.5,1.1-1.1,1.1-.2,0-.5,0-.7-.2-8-4.1-16.2-7.9-24.1-12-.5,1.9-1.2,3.8-2.1,5.6-2.7,5-7.5,8.7-13,10-1.8.4-3.7.5-5.6.5h-77.6c-1.7,0-3.5,0-5.2-.1-9-1.3-16-8.7-16.9-17.7v-13.3c.1-1.1.9-2.1,2-2.4,13.8-6.8,27.7-13.7,41.5-20.6-14-7-27.9-13.9-41.9-20.8-1-.4-1.6-1.4-1.6-2.5,0-4.4,0-8.9,0-13.3,1.1-9.7,9.1-17.2,18.9-17.7h83.3c6,.5,11.6,3.7,15,8.7,1.5,2.2,2.6,4.8,3.2,7.4l24.5-12.1c.5-.3,1.2,0,1.5.5,0,.1,0,.2.1.3v13.8h0c0,1-.6,1.8-1.4,2.2-22.5,11.2-45.1,22.4-67.6,33.6l67.4,33.4Z"/>
</svg>